<?xml version="1.0" encoding="utf-8"?>
<!-- Generator: Adobe Illustrator 22.0.1, SVG Export Plug-In . SVG Version: 6.00 Build 0)  -->
<svg version="1.1" id="Layer_1" xmlns="http://www.w3.org/2000/svg" xmlns:xlink="http://www.w3.org/1999/xlink" x="0px" y="0px"
	 viewBox="0 0 39 39" style="enable-background:new 0 0 39 39;" xml:space="preserve">
<style type="text/css">
	.st0{fill:#FFFFFF;}
</style>
<g>
	<path d="M39,19.5C39,30.2,30.2,39,19.5,39S0,30.2,0,19.5S8.8,0,19.5,0S39,8.8,39,19.5z"/>
	<path class="st0" d="M31.2,13.7v6.8c0,3.8-3,6.8-6.8,6.8c-2,0-3.6-0.8-4.9-2c-1.3,1.3-2.9,2-4.9,2c-3.8,0-6.8-3-6.8-6.8v-6.8
		c0-1.1,0.9-1.9,1.9-1.9s1.9,0.9,1.9,1.9v6.8c0,1.7,1.3,2.9,2.9,2.9s2.9-1.3,2.9-2.9v-6.8c0-1.1,0.9-1.9,2-1.9s2,0.9,2,1.9v6.8
		c0,1.7,1.3,2.9,2.9,2.9s2.9-1.3,2.9-2.9v-6.8c0-1.1,0.9-1.9,2-1.9S31.2,12.6,31.2,13.7z"/>
</g>
</svg>
